<?xml version="1.0" standalone="no"?>
<!DOCTYPE svg PUBLIC "-//W3C//DTD SVG 20010904//EN"
 "http://www.w3.org/TR/2001/REC-SVG-20010904/DTD/svg10.dtd">
<svg version="1.0" xmlns="http://www.w3.org/2000/svg"
 width="362.000000pt" height="362.000000pt" viewBox="0 0 362.000000 362.000000"
 preserveAspectRatio="xMidYMid meet">
<metadata>
Created by potrace 1.14, written by Peter Selinger 2001-2017
</metadata>
<g transform="translate(0.000000,362.000000) scale(0.100000,-0.100000)"
fill="#000000" stroke="none">
<path d="M2190 3275 c275 -42 466 -133 648 -309 135 -131 228 -292 279 -484
24 -87 26 -116 27 -277 1 -197 -14 -291 -75 -477 -52 -162 -168 -373 -275
-503 l-33 -41 314 -373 c172 -205 323 -380 335 -388 33 -23 114 -7 118 23 2
16 -79 121 -301 389 l-305 367 61 96 c97 155 160 308 217 528 145 560 -53
1099 -491 1338 -143 78 -341 127 -509 125 l-95 -1 85 -13z"/>
<path d="M1770 3190 c-52 -4 -133 -15 -180 -25 -100 -20 -360 -103 -360 -115
0 -4 15 -31 34 -59 19 -27 36 -55 38 -62 3 -8 19 -8 63 2 97 21 314 16 408 -9
186 -51 339 -173 415 -332 55 -117 67 -173 65 -315 -1 -131 -19 -221 -71 -343
l-29 -69 261 -295 261 -295 52 79 c225 344 313 771 227 1113 -21 86 -124 289
-184 362 -215 265 -581 398 -1000 363z"/>
<path d="M795 3029 c-102 -15 -216 -78 -305 -167 -103 -104 -151 -198 -158
-311 -5 -96 13 -160 64 -219 136 -159 429 -126 628 71 299 296 157 684 -229
626z"/>
<path d="M1430 2368 c-82 -143 -297 -330 -458 -399 -37 -16 -66 -33 -65 -38 2
-6 293 -338 648 -739 444 -501 658 -736 686 -751 89 -50 120 -54 509 -58 284
-3 374 -1 404 9 48 16 64 38 51 72 -6 13 -129 154 -275 313 -146 158 -535 595
-864 971 -329 375 -599 682 -599 682 -1 0 -18 -28 -37 -62z"/>
<path d="M206 2138 c-444 -806 -134 -1612 669 -1738 116 -19 354 -14 485 10
131 24 353 94 451 142 l67 33 -258 295 c-142 162 -264 294 -272 293 -7 -1 -56
-11 -108 -22 -129 -28 -304 -28 -419 -1 -164 40 -301 132 -387 261 -120 180
-143 403 -67 643 l25 81 -33 25 c-19 14 -47 37 -62 53 -16 15 -30 27 -31 27
-2 0 -29 -46 -60 -102z"/>
</g>
</svg>
